<svg xmlns="http://www.w3.org/2000/svg" viewBox="0 0 165.52 105.97" width="165.52" height="105.97">
  <path d="M150.7 0H14.82C6.64 0 0 6.64 0 14.82v76.33c0 8.18 6.64 14.82 14.82 14.82H150.7c8.18 0 14.82-6.64 14.82-14.82V14.82C165.52 6.64 158.88 0 150.7 0z" fill="#000"/>
  <path d="M41.54 28.58c1.74-2.2 2.9-5.14 2.58-8.12-2.5.13-5.56 1.75-7.35 3.89-1.6 1.92-3.02 5.02-2.64 7.97 2.8.2 5.66-1.42 7.4-3.74zm.77 4.05c-4.07-.25-7.52 2.32-9.45 2.32-1.96 0-4.93-2.22-8.14-2.16-4.18.06-8.06 2.45-10.2 6.18-4.37 7.58-1.12 18.76 3.1 24.9 2.08 3.03 4.53 6.4 7.77 6.28 3.1-.13 4.29-1.99 8.05-1.99 3.74 0 4.84 1.99 8.11 1.92 3.36-.06 5.5-3.04 7.55-6.1 2.4-3.48 3.38-6.85 3.42-7.03-.07-.03-6.54-2.53-6.6-10.02-.06-6.27 5.11-9.26 5.34-9.42-2.95-4.3-7.5-4.77-9.07-4.9zm24.02-8.2v45.52h7.01V53.3h9.7c8.93 0 15.19-6.13 15.19-14.46 0-8.33-6.16-14.4-15-14.4H66.33zm7.01 6.38h8.03c6.12 0 9.63 3.28 9.63 8.05 0 4.78-3.51 8.09-9.67 8.09h-8v-16.14zm37.85 39.4c4.25 0 8.2-2.16 10.01-5.57h.14v5.22h6.47V49.2c0-6.5-5.2-10.72-13.26-10.72-7.45 0-12.96 4.25-13.16 10.11h6.3c.34-2.8 2.94-4.63 6.67-4.63 4.32 0 6.74 2.02 6.74 5.74v2.53l-8.81 .53c-8.2.5-12.65 3.88-12.65 9.76 0 5.95 4.6 9.9 11.55 9.9zm1.97-5.4c-3.78 0-6.23-1.83-6.23-4.63 0-2.87 2.25-4.56 6.57-4.83l7.83-.48v2.57c0 4.32-3.65 7.37-8.17 7.37zm28.9 4.9c3.1 0 5.74-.77 7.52-2.16h.2v1.8h6.4V35.6h-6.67v16.14c0 4.22-2.77 6.95-7.04 6.95-4.18 0-6.5-2.5-6.5-6.98V35.6h-6.67v17.08c0 7.52 4.32 12.03 12.75 12.03zm31.8.5c7.45 0 12.96-4.05 13.16-9.9h-6.3c-.34 2.7-2.94 4.53-6.67 4.53-4.8 0-7.9-3.95-7.9-10.35 0-6.33 3.14-10.28 7.9-10.28 3.95 0 6.33 2.02 6.67 4.53h6.3c-.2-5.95-5.84-9.93-13.16-9.93-8.88 0-14.62 6.13-14.62 15.75 0 9.53 5.67 15.65 14.62 15.65z" fill="#fff"/>
</svg>