<svg xmlns="http://www.w3.org/2000/svg" viewBox="0 0 100 100" width="100" height="100">
  <rect width="100" height="100" rx="15" fill="#ae2070"/>
  <path d="M50 20c-16.57 0-30 13.43-30 30s13.43 30 30 30 30-13.43 30-30-13.43-30-30-30zm0 45c-8.28 0-15-6.72-15-15s6.72-15 15-15 15 6.72 15 15-6.72 15-15 15z" fill="#fff"/>
  <circle cx="50" cy="50" r="7.5" fill="#fff"/>
  <circle cx="70" cy="35" r="7.5" fill="#fff"/>
  <circle cx="30" cy="35" r="7.5" fill="#fff"/>
  <circle cx="30" cy="65" r="7.5" fill="#fff"/>
  <circle cx="70" cy="65" r="7.5" fill="#fff"/>
</svg>