<svg xmlns="http://www.w3.org/2000/svg" viewBox="0 0 566.93 137.35" width="566.93" height="137.35">
  <path d="M192.95 32.47c-2.06-.93-4.67-1.37-7.77-1.37h-14.27a2.9 2.9 0 00-2.86 2.43l-8.44 53.54a1.74 1.74 0 001.72 2.01h7.25a2.9 2.9 0 002.86-2.43l2.28-14.46a2.9 2.9 0 012.86-2.43h4.51c13.64 0 21.5-6.6 23.56-19.68.93-5.73.04-10.23-2.7-13.38a13.27 13.27 0 00-9-4.23zm2.38 19.32c-1.13 7.36-6.8 7.36-12.28 7.36h-3.12l2.19-13.86a1.74 1.74 0 011.72-1.46h1.43c3.73 0 7.25 0 9.06 2.12 1.08 1.27 1.41 3.16 1 5.84zm80.27-19.32c-2.06-.93-4.67-1.37-7.77-1.37h-14.27a2.9 2.9 0 00-2.86 2.43l-8.44 53.54a1.74 1.74 0 001.72 2.01h6.77a2.9 2.9 0 002.86-2.43l2.28-14.46a2.9 2.9 0 012.86-2.43h4.51c13.64 0 21.5-6.6 23.56-19.68.93-5.73.04-10.23-2.7-13.38a13.27 13.27 0 00-9-4.23h-.52zm2.38 19.32c-1.13 7.36-6.8 7.36-12.28 7.36h-3.12l2.19-13.86a1.74 1.74 0 011.72-1.46h1.43c3.73 0 7.25 0 9.06 2.12 1.08 1.27 1.41 3.16 1 5.84zm40.82-1.46h-6.82a1.74 1.74 0 00-1.72 1.46l-.44 2.8-.7-1.01c-2.17-3.15-7-4.2-11.81-4.2-11.05 0-20.5 8.37-22.34 20.1-1 5.84.4 11.43 3.81 15.33 3.13 3.57 7.6 5.05 12.92 5.05 9.13 0 14.19-5.87 14.19-5.87l-.46 2.85a1.74 1.74 0 001.72 2.01h6.14a2.9 2.9 0 002.86-2.43l5.4-34.07a1.74 1.74 0 00-1.72-2.01h-.03zm-9.5 19.33c-.97 5.7-5.5 9.53-11.3 9.53-2.9 0-5.23-.93-6.72-2.7a8.04 8.04 0 01-1.4-7.64c.92-5.62 5.5-9.56 11.2-9.56 2.83 0 5.15.94 6.68 2.72a8.06 8.06 0 011.54 7.65zm63.46-37.19l-8.57 54.59a1.74 1.74 0 001.72 2.01h6.12a2.9 2.9 0 002.86-2.43l8.45-53.54a1.74 1.74 0 00-1.72-2.01h-6.86a1.74 1.74 0 00-2 1.38z" fill="#253b80"/>
  <path d="M385.35 50.52h-6.82a1.74 1.74 0 00-1.72 1.46l-.44 2.8-.7-1.01c-2.17-3.15-7-4.2-11.81-4.2-11.05 0-20.5 8.37-22.34 20.1-1 5.84.4 11.43 3.81 15.33 3.13 3.57 7.6 5.05 12.92 5.05 9.13 0 14.19-5.87 14.19-5.87l-.46 2.85a1.74 1.74 0 001.72 2.01h6.14a2.9 2.9 0 002.86-2.43l5.4-34.07a1.74 1.74 0 00-1.72-2.01h-.03zm-9.5 19.33c-.97 5.7-5.5 9.53-11.3 9.53-2.9 0-5.23-.93-6.72-2.7a8.04 8.04 0 01-1.4-7.64c.92-5.62 5.5-9.56 11.2-9.56 2.83 0 5.15.94 6.68 2.72a8.06 8.06 0 011.54 7.65zm31.76-38.35a13.44 13.44 0 00-9.33 3.52c-2.65 2.51-4.14 6.06-4.38 10.13-.05 1.3.05 4.27 2.34 6.52 1.9 1.87 4.64 2.82 8.14 2.82h.84c2.9 0 6.75-.38 9.38-1.2l.76-.24.85-5.37-.93.4c-2.03.88-5.13 1.27-8.04 1.27h-.6c-1.8 0-3.22-.38-4.08-1.1a3.13 3.13 0 01-.99-2.56c.06-1.17.52-2.2 1.33-2.97a5.8 5.8 0 013.97-1.28h.53c2.33 0 4.59.49 6.35 1.37l.93.46.84-5.3-.82-.34c-1.62-.67-4.13-1.1-7.09-1.1zm-5.69 38.35h-6.82a1.74 1.74 0 00-1.72 1.46l-.44 2.8-.7-1.01c-2.17-3.15-7-4.2-11.81-4.2-11.05 0-20.5 8.37-22.34 20.1-1 5.84.4 11.43 3.81 15.33 3.13 3.57 7.6 5.05 12.92 5.05 9.13 0 14.19-5.87 14.19-5.87l-.46 2.85a1.74 1.74 0 001.72 2.01h6.14a2.9 2.9 0 002.86-2.43l5.4-34.07a1.74 1.74 0 00-1.72-2.01h-.03zm-9.5 19.33c-.97 5.7-5.5 9.53-11.3 9.53-2.9 0-5.23-.93-6.72-2.7a8.04 8.04 0 01-1.4-7.64c.92-5.62 5.5-9.56 11.2-9.56 2.83 0 5.15.94 6.68 2.72a8.06 8.06 0 011.54 7.65zm27.7-29.3l-5.57 35.4a1.74 1.74 0 001.72 2.01h5.6a2.9 2.9 0 002.87-2.43l5.5-34.86a1.74 1.74 0 00-1.72-2.01h-6.67a1.74 1.74 0 00-1.72 1.9z" fill="#179bd7"/>
  <path d="M98.19 26.35H71.77c-1.8 0-3.34 1.3-3.62 3.08L57.7 87.97a1.84 1.84 0 001.82 2.13h12.88a3.11 3.11 0 003.06-2.6l2.93-18.6a3.1 3.1 0 013.06-2.6h8.38c14.71 0 23.2-7.12 25.42-21.23.99-6.16.04-11.01-2.82-14.4-3.14-3.76-8.72-5.32-16.24-5.32zm2.58 20.93c-1.22 8.03-7.35 8.03-13.3 8.03h-3.35l2.36-14.93a1.85 1.85 0 011.82-1.59h1.54c4.04 0 7.86 0 9.82 2.3 1.17 1.39 1.52 3.43 1.1 6.19zm80.2-20.93h-26.42c-1.8 0-3.34 1.3-3.62 3.08l-10.46 58.54a1.84 1.84 0 001.82 2.13h13.46a1.85 1.85 0 001.83-1.59l2.97-18.77a3.1 3.1 0 013.06-2.6h8.38c14.71 0 23.2-7.12 25.42-21.23.99-6.16.04-11.01-2.82-14.4-3.14-3.76-8.72-5.32-16.24-5.32h-7.38zm2.57 20.93c-1.22 8.03-7.35 8.03-13.3 8.03h-3.35l2.36-14.93a1.85 1.85 0 011.82-1.59h1.54c4.04 0 7.86 0 9.82 2.3 1.17 1.39 1.52 3.43 1.1 6.19zm39.92-1.57h-13.2a1.85 1.85 0 00-1.82 1.59l-.47 2.97-.74-1.08c-2.3-3.33-7.43-4.45-12.57-4.45-11.77 0-21.82 8.92-23.8 21.43-1.02 6.23.42 12.19 3.96 16.36 3.22 3.8 7.85 5.38 13.32 5.38 9.42 0 14.65-6.05 14.65-6.05l-.47 2.93a1.84 1.84 0 001.82 2.13h11.9a3.1 3.1 0 003.05-2.6l5.77-36.5a1.84 1.84 0 00-1.82-2.13h-.58zm-18.4 20.53c-1.03 6.1-5.87 10.2-12.05 10.2-3.1 0-5.58-1-7.17-2.89a8.99 8.99 0 01-1.56-8.18c.98-6.11 5.91-10.37 11.95-10.37 3.02 0 5.47 1 7.09 2.9 1.62 1.9 2.12 4.6 1.74 8.34z" fill="#253b80"/>
  <path d="M228.9 45.74h-13.2a1.85 1.85 0 00-1.82 1.59l-.47 2.97-.74-1.08c-2.3-3.33-7.43-4.45-12.57-4.45-11.77 0-21.82 8.92-23.8 21.43-1.02 6.23.42 12.19 3.96 16.36 3.22 3.8 7.85 5.38 13.32 5.38 9.42 0 14.65-6.05 14.65-6.05l-.47 2.93a1.84 1.84 0 001.82 2.13h11.9a3.1 3.1 0 003.05-2.6l5.77-36.5a1.84 1.84 0 00-1.82-2.13h-.58zm-18.4 20.53c-1.03 6.1-5.87 10.2-12.05 10.2-3.1 0-5.58-1-7.17-2.89a8.99 8.99 0 01-1.56-8.18c.98-6.11 5.91-10.37 11.95-10.37 3.02 0 5.47 1 7.09 2.9 1.62 1.9 2.12 4.6 1.74 8.34zm63.47-40.86l-11.54 73.4a1.84 1.84 0 001.82 2.13h11.62a3.1 3.1 0 003.06-2.6l11.38-71.8a1.84 1.84 0 00-1.82-2.13h-13a1.85 1.85 0 00-1.52 1z" fill="#179bd7"/>
</svg>