<svg xmlns="http://www.w3.org/2000/svg" viewBox="0 0 1000.046 323.653" height="323.653" width="1000.046">
  <path fill="#00579f" d="M433.398 318.41h-97.303l60.85-360.669h97.302z"/>
  <path fill="#00579f" d="M749.997 152.678c-39.145-14.614-63.312-24.384-63.095-39.169.217-13.284 14.972-27.46 47.374-27.46 32.072-.433 55.308 6.494 73.452 13.855l13.718-64.536c-17.927-6.494-41.01-12.772-70.88-12.772-78.16 0-133.034 39.452-133.468 95.946-.433 41.794 39.169 65.1 69.098 78.81 30.794 14.197 41.01 23.102 40.794 35.657-.434 19.345-24.384 27.894-47.052 27.894-39.385 0-62.229-10.85-80.373-18.48l-14.197 66.249c18.361 8.422 52.15 15.698 87.373 16.131 82.518 0 136.535-38.803 136.968-99.002.217-33.155-19.778-58.405-59.712-73.123zM1000.046 318.41H915.6l1.3-19.345c-22.652 14.197-48.24 24.167-75.7 24.167-43.16 0-73.02-34.522-73.02-81.24 0-73.236 53.02-152.38 126.257-152.38 29.928 0 53.887 8.422 67.15 21.627l12.772-75.7h84.447zm-125.39-79.677c16.564 0 27.46-3.68 43.593-14.197l7.772-46.185c-7.989-10.85-24.167-18.48-39.169-18.48-33.155 0-55.741 35.874-55.741 69.53 0 17.927 9.288 39.385 43.593 39.385z"/>
  <path fill="#00579f" d="M285.47 318.41c10.417-26.115 50.112-125.39 50.112-125.39l10.417-28.327h-71.74s-13.718 35.657-28.327 74.32h-2.166s-11.983-74.32-11.983-74.32h-99.47l-.433 2.6c22.652 5.628 48.24 14.614 63.746 24.167 9.505 6.06 12.338 11.333 15.48 25.53l28.327 126.04z"/>
  <path fill="#faa61a" d="M82.938 318.41L.5 164.66l-3.68 22.652c-7.989 25.53-33.155 65.1-61.482 85.134l71.74 146.32h84.447l148.486-350.252h-84.447z"/>
</svg>