<svg xmlns="http://www.w3.org/2000/svg" viewBox="0 0 141.73 141.73" width="141.73" height="141.73">
  <rect width="141.73" height="141.73" rx="15" fill="#0068ff"/>
  <path d="M41.03 45.33h59.67c3.98 0 7.22 3.24 7.22 7.22v36.63c0 3.98-3.24 7.22-7.22 7.22H41.03c-3.98 0-7.22-3.24-7.22-7.22V52.55c0-3.98 3.24-7.22 7.22-7.22z" fill="#fff"/>
  <path d="M70.87 45.33v46.07m-29.84-23.04h59.67" stroke="#0068ff" stroke-width="5" stroke-linecap="round"/>
  <path d="M70.87 71.73c3.98 0 7.22-3.24 7.22-7.22 0-3.98-3.24-7.22-7.22-7.22-3.98 0-7.22 3.24-7.22 7.22 0 3.98 3.24 7.22 7.22 7.22zm0 23.04c3.98 0 7.22-3.24 7.22-7.22 0-3.98-3.24-7.22-7.22-7.22-3.98 0-7.22 3.24-7.22 7.22 0 3.98 3.24 7.22 7.22 7.22z" fill="#0068ff"/>
  <path d="M41.03 71.73c3.98 0 7.22-3.24 7.22-7.22 0-3.98-3.24-7.22-7.22-7.22-3.98 0-7.22 3.24-7.22 7.22 0 3.98 3.24 7.22 7.22 7.22zm59.67 0c3.98 0 7.22-3.24 7.22-7.22 0-3.98-3.24-7.22-7.22-7.22-3.98 0-7.22 3.24-7.22 7.22 0 3.98 3.24 7.22 7.22 7.22z" fill="#0068ff"/>
</svg>